<svg id="Capa_1" enable-background="new 0 0 511.605 511.605" height="512" viewBox="0 0 511.605 511.605" width="512" xmlns="http://www.w3.org/2000/svg"><g id="XMLID_49_"><path id="XMLID_88_" d="m289.415 234.445v152.258c0 28.872-23.489 52.36-52.361 52.36-28.873 0-52.362-23.488-52.362-52.36v-255.046c20.96-12.911 33.848-35.819 33.848-60.558 0-39.204-31.895-71.1-71.1-71.1s-71.1 31.896-71.1 71.1c0 25.701 13.634 49.045 35.809 61.717v253.887c0 68.871 56.032 124.902 124.904 124.902s124.903-56.031 124.903-124.902v-19.253l34.028 21.917 39.279-60.988z" fill="#7da1b3"/><path id="XMLID_3354_" d="m289.415 234.445v152.258c0 28.872-23.489 52.36-52.361 52.36-28.873 0-52.362-23.488-52.362-52.36v-255.046c20.96-12.911 33.848-35.819 33.848-60.558 0-38.593-30.914-70.081-69.278-71.053v475.411c22.577 22.334 53.6 36.148 87.791 36.148 68.872 0 124.903-56.031 124.903-124.902v-19.253l34.028 21.917 39.279-60.988z" fill="#4d778c"/><path d="m149.263 85.074c7.846 0 15.363-6.899 15-15-.364-8.127-6.591-15-15-15-7.846 0-15.363 6.899-15 15 .364 8.127 6.59 15 15 15z" fill="#4d778c"/><path id="XMLID_3320_" d="m149.263 55.074v30c7.846 0 15.363-6.899 15-15-.364-8.127-6.591-15-15-15z" fill="#284866"/></g></svg>